<svg width="24" height="24" viewBox="0 0 24 24" fill="none" xmlns="http://www.w3.org/2000/svg">
<path d="M7.50001 15.5H2.50001C2.23479 15.5 1.98044 15.6054 1.7929 15.7929C1.60537 15.9805 1.50001 16.2348 1.50001 16.5V21.5C1.50001 21.7652 1.60537 22.0196 1.7929 22.2071C1.98044 22.3947 2.23479 22.5 2.50001 22.5H7.50001C7.76523 22.5 8.01958 22.3947 8.20712 22.2071C8.39465 22.0196 8.50001 21.7652 8.50001 21.5V20H12C12.2652 20 12.5196 19.8947 12.7071 19.7071C12.8947 19.5196 13 19.2652 13 19C13 18.7348 12.8947 18.4805 12.7071 18.2929C12.5196 18.1054 12.2652 18 12 18H8.50001V16.5C8.50001 16.2348 8.39465 15.9805 8.20712 15.7929C8.01958 15.6054 7.76523 15.5 7.50001 15.5ZM6.50001 20.5H3.50001V17.5H6.50001V20.5ZM4.00001 8.85803V13C4.00001 13.2652 4.10537 13.5196 4.2929 13.7071C4.48044 13.8947 4.73479 14 5.00001 14C5.26523 14 5.51958 13.8947 5.70712 13.7071C5.89465 13.5196 6.00001 13.2652 6.00001 13V8.85803C6.94267 8.61464 7.7642 8.0358 8.31061 7.23002C8.85702 6.42424 9.0908 5.44684 8.96813 4.48103C8.84545 3.51522 8.37475 2.6273 7.64424 1.98371C6.91374 1.34012 5.97358 0.985046 5.00001 0.985046C4.02644 0.985046 3.08628 1.34012 2.35578 1.98371C1.62527 2.6273 1.15457 3.51522 1.03189 4.48103C0.909216 5.44684 1.143 6.42424 1.68941 7.23002C2.23582 8.0358 3.05735 8.61464 4.00001 8.85803ZM5.00001 3.00003C5.39557 3.00003 5.78225 3.11733 6.11115 3.33709C6.44005 3.55685 6.69639 3.86921 6.84777 4.23466C6.99914 4.60012 7.03875 5.00225 6.96158 5.39021C6.88441 5.77817 6.69393 6.13454 6.41422 6.41424C6.13452 6.69395 5.77815 6.88443 5.39019 6.9616C5.00223 7.03877 4.6001 6.99916 4.23464 6.84779C3.86919 6.69641 3.55683 6.44007 3.33707 6.11117C3.11731 5.78227 3.00001 5.39559 3.00001 5.00003C3.00001 4.4696 3.21072 3.96089 3.5858 3.58582C3.96087 3.21074 4.46958 3.00003 5.00001 3.00003ZM20 15.142V12C20 11.7348 19.8947 11.4805 19.7071 11.2929C19.5196 11.1054 19.2652 11 19 11C18.7348 11 18.4804 11.1054 18.2929 11.2929C18.1054 11.4805 18 11.7348 18 12V15.142C17.0574 15.3854 16.2358 15.9643 15.6894 16.77C15.143 17.5758 14.9092 18.5532 15.0319 19.519C15.1546 20.4848 15.6253 21.3728 16.3558 22.0164C17.0863 22.6599 18.0264 23.015 19 23.015C19.9736 23.015 20.9137 22.6599 21.6442 22.0164C22.3747 21.3728 22.8455 20.4848 22.9681 19.519C23.0908 18.5532 22.857 17.5758 22.3106 16.77C21.7642 15.9643 20.9427 15.3854 20 15.142ZM19 21C18.6044 21 18.2178 20.8827 17.8889 20.663C17.56 20.4432 17.3036 20.1308 17.1523 19.7654C17.0009 19.3999 16.9613 18.9978 17.0384 18.6098C17.1156 18.2219 17.3061 17.8655 17.5858 17.5858C17.8655 17.3061 18.2219 17.1156 18.6098 17.0385C18.9978 16.9613 19.3999 17.0009 19.7654 17.1523C20.1308 17.3036 20.4432 17.56 20.6629 17.8889C20.8827 18.2178 21 18.6045 21 19C21 19.5305 20.7893 20.0392 20.4142 20.4142C20.0392 20.7893 19.5304 21 19 21ZM16.5 8.50003H21.5C21.7652 8.50003 22.0196 8.39467 22.2071 8.20714C22.3947 8.0196 22.5 7.76525 22.5 7.50003V2.50003C22.5 2.23481 22.3947 1.98046 22.2071 1.79292C22.0196 1.60539 21.7652 1.50003 21.5 1.50003H16.5C16.2348 1.50003 15.9804 1.60539 15.7929 1.79292C15.6054 1.98046 15.5 2.23481 15.5 2.50003V4.00003H12C11.7348 4.00003 11.4804 4.10539 11.2929 4.29292C11.1054 4.48046 11 4.73481 11 5.00003C11 5.26525 11.1054 5.5196 11.2929 5.70714C11.4804 5.89467 11.7348 6.00003 12 6.00003H15.5V7.50003C15.5 7.76525 15.6054 8.0196 15.7929 8.20714C15.9804 8.39467 16.2348 8.50003 16.5 8.50003ZM17.5 3.50003H20.5V6.50003H17.5V3.50003Z" fill="white"/>
</svg>
