<svg width="152" height="121" viewBox="0 0 152 121" fill="none" xmlns="http://www.w3.org/2000/svg">
<path d="M94.2055 64.3893H94.7055C94.7055 64.1131 94.4816 63.8893 94.2055 63.8893V64.3893ZM93.7055 114.086C93.7055 114.362 93.9293 114.586 94.2055 114.586C94.4816 114.586 94.7055 114.362 94.7055 114.086H93.7055ZM93.7055 64.3893V114.086H94.7055V64.3893H93.7055ZM66.9805 64.8893H82.5376V63.8893H66.9805V64.8893ZM82.5376 64.8893H94.2055V63.8893H82.5376V64.8893Z" fill="#FF7676"/>
<path fill-rule="evenodd" clip-rule="evenodd" d="M56.2852 64.3893C56.2852 64.1357 56.4907 63.9301 56.7443 63.9301L66.8456 63.9301C67.0992 63.9301 67.3048 64.1357 67.3048 64.3893C67.3048 64.6429 67.0992 64.8484 66.8456 64.8484L56.7443 64.8484C56.4907 64.8484 56.2852 64.6429 56.2852 64.3893Z" fill="#FF7676"/>
<path fill-rule="evenodd" clip-rule="evenodd" d="M56.4196 64.714C56.2403 64.5347 56.2403 64.244 56.4196 64.0646L60.552 59.9323C60.7313 59.753 61.022 59.753 61.2013 59.9323C61.3807 60.1116 61.3807 60.4023 61.2013 60.5816L57.3936 64.3893L61.2013 68.197C61.3807 68.3763 61.3807 68.667 61.2013 68.8464C61.022 69.0257 60.7313 69.0257 60.552 68.8464L56.4196 64.714Z" fill="#FF7676"/>
<rect x="73.4648" y="107.171" width="5.18571" height="13.8286" fill="#C2C2C2"/>
<rect y="112.357" width="74.3286" height="3.45714" fill="#C2C2C2"/>
<rect x="114.949" y="112.357" width="36.3" height="3.45714" fill="#C2C2C2"/>
<rect x="110.629" y="107.171" width="5.18571" height="13.8286" fill="#C2C2C2"/>
<rect x="20.3789" y="0.5" width="100.986" height="30.9555" fill="#EDEDED" stroke="#C2C2C2"/>
<rect x="20.3789" y="31.7756" width="29.5957" height="54.0723" fill="#EDEDED" stroke="#C2C2C2"/>
<rect x="53.8711" y="29.9158" width="18.3574" height="3.39952" rx="1" fill="#767676"/>
<rect x="51.832" y="48.2733" width="9.51867" height="3.39952" rx="1" transform="rotate(90 51.832 48.2733)" fill="#767676"/>
<rect x="95.3477" y="33.3153" width="9.51867" height="3.39952" rx="1" transform="rotate(-180 95.3477 33.3153)" fill="#767676"/>
<rect x="51.832" y="59.1517" width="9.51867" height="3.39952" rx="1" transform="rotate(90 51.832 59.1517)" fill="#FF7676"/>
</svg>
